<svg xmlns="http://www.w3.org/2000/svg" viewBox="0 0 192 192" width="192" height="192">
  <rect width="192" height="192" rx="42" fill="#09090b"/>
  <rect width="184" height="184" x="4" y="4" rx="38" fill="#050505" stroke="#facc15" stroke-opacity="0.3" stroke-width="2"/>
  <g transform="translate(26, 56) scale(1.4)">
    <path fill="#facc15" d="M 50,14 L 53,4 L 56,14 C 64,12 74,10 88,17 C 96,21 100,28 100,31 C 89,29 80,32 75,42 C 68,32 58,35 50,52 C 42,35 32,32 25,42 C 20,32 11,29 0,31 C 0,28 4,21 12,17 C 26,10 36,12 44,14 L 47,4 Z"/>
  </g>
</svg>
